<?xml version="1.0" standalone="no"?>
<!DOCTYPE svg PUBLIC "-//W3C//DTD SVG 20010904//EN"
 "http://www.w3.org/TR/2001/REC-SVG-20010904/DTD/svg10.dtd">
<svg version="1.0" xmlns="http://www.w3.org/2000/svg"
 width="500.000000pt" height="500.000000pt" viewBox="0 0 500.000000 500.000000"
 preserveAspectRatio="xMidYMid meet">
<metadata>
Created by potrace 1.14, written by Peter Selinger 2001-2017
</metadata>
<g transform="translate(0.000000,500.000000) scale(0.100000,-0.100000)"
fill="#000000" stroke="none">
<path d="M2894 3697 c-3 -8 -4 -47 -2 -88 l3 -74 83 -3 82 -3 0 91 0 90 -80 0
c-58 0 -82 -4 -86 -13z"/>
<path d="M2840 3360 l0 -120 125 0 126 0 -3 118 -3 117 -122 3 -123 3 0 -121z"/>
<path d="M1686 3414 c-14 -14 -16 -69 -16 -459 0 -314 3 -446 11 -451 6 -4 7
-9 2 -13 -22 -15 -173 -200 -173 -212 0 -32 40 -78 77 -89 27 -8 282 -10 860
-8 l821 3 26 24 c14 13 29 36 34 50 9 25 3 36 -69 122 -44 52 -86 99 -94 105
-9 7 -11 15 -4 25 5 8 9 80 9 162 l0 147 -50 0 -50 0 0 -128 c0 -86 -4 -132
-12 -140 -9 -9 -165 -12 -638 -12 -595 0 -628 1 -643 18 -15 17 -17 59 -17
396 0 241 4 384 10 397 10 18 25 19 370 19 l360 0 0 30 0 30 -399 0 c-350 0
-402 -2 -415 -16z m1002 -1099 l22 -35 -285 0 c-157 0 -285 3 -285 6 0 3 9 19
21 35 l20 29 242 0 242 0 23 -35z m-110 -82 l3 -23 -155 0 c-155 0 -174 4
-162 36 5 12 31 14 158 12 150 -3 153 -3 156 -25z"/>
<path d="M2640 3105 l0 -85 85 0 85 0 0 85 0 85 -85 0 -85 0 0 -85z"/>
<path d="M2540 2880 l0 -70 70 0 70 0 0 70 0 70 -70 0 -70 0 0 -70z"/>
<path d="M2300 2865 l0 -75 75 0 75 0 0 75 0 75 -75 0 -75 0 0 -75z"/>
</g>
</svg>
