<?xml version="1.0" standalone="no"?>
<!DOCTYPE svg PUBLIC "-//W3C//DTD SVG 20010904//EN"
 "http://www.w3.org/TR/2001/REC-SVG-20010904/DTD/svg10.dtd">
<svg version="1.0" xmlns="http://www.w3.org/2000/svg"
 width="432.000000pt" height="577.000000pt" viewBox="0 0 432.000000 577.000000"
 preserveAspectRatio="xMidYMid meet">
<metadata>
Created by potrace 1.16, written by Peter Selinger 2001-2019
</metadata>
<g transform="translate(0.000000,577.000000) scale(0.100000,-0.100000)"
fill="#000000" stroke="none">
<path d="M2450 4759 c-41 -4 -129 -12 -195 -19 -120 -11 -206 -30 -231 -51 -8
-6 -23 -9 -34 -6 -10 3 -24 -1 -31 -9 -6 -7 -26 -16 -44 -20 -18 -3 -71 -28
-117 -55 -63 -37 -93 -49 -124 -49 -29 0 -49 -7 -70 -25 -15 -13 -24 -28 -20
-32 5 -4 15 2 23 15 15 21 43 31 43 15 -1 -5 -37 -33 -80 -63 -44 -30 -92 -64
-106 -75 -85 -64 -313 -316 -360 -397 -92 -157 -166 -295 -213 -398 -148 -322
-202 -488 -226 -690 -29 -246 -29 -247 -180 -460 -131 -185 -171 -249 -206
-326 -16 -34 -42 -84 -58 -109 -16 -26 -28 -52 -25 -59 5 -12 -107 -110 -168
-148 l-28 -18 0 -890 0 -890 586 2 587 3 27 55 c16 30 32 66 37 80 5 14 24 54
41 90 18 36 32 69 32 73 0 4 7 24 16 45 10 20 18 43 20 51 1 7 7 18 13 24 6 6
11 17 11 23 0 7 5 25 12 41 6 15 13 41 15 58 3 16 9 38 15 49 6 10 12 32 15
49 7 44 65 226 112 351 23 60 41 116 41 125 0 9 7 44 16 76 9 38 15 102 15
171 -1 98 -4 117 -25 160 -42 84 -76 160 -76 172 0 6 -5 23 -12 39 -6 15 -12
33 -14 38 -1 6 -8 24 -15 40 -13 31 -16 39 -18 53 0 4 -20 27 -42 52 -23 25
-52 61 -64 80 -12 19 -57 67 -99 105 -109 100 -135 135 -157 216 -11 39 -28
80 -39 92 -25 26 -60 118 -60 156 0 30 19 45 45 35 11 -5 14 -2 9 12 -4 11
-10 24 -14 29 -21 29 -38 106 -31 138 11 46 97 176 126 189 14 6 22 16 18 21
-4 7 1 8 13 4 18 -7 18 -6 2 6 -16 13 -14 18 30 70 26 31 50 56 53 56 8 1 85
53 137 91 21 16 28 26 20 31 -13 8 -57 -20 -58 -37 0 -11 -40 -27 -47 -20 -5
5 78 68 92 70 8 1 18 5 21 9 4 4 17 7 29 7 11 0 27 6 34 13 11 10 12 8 6 -11
-6 -21 -5 -21 19 -11 14 7 26 16 26 21 0 4 15 8 34 8 19 0 38 5 41 10 3 6 25
10 48 10 23 0 51 7 61 15 11 8 30 15 42 15 11 0 38 11 59 25 35 25 38 25 51 8
7 -10 14 -13 14 -6 0 7 12 18 28 25 20 10 27 21 28 43 0 17 12 48 27 71 18 27
28 56 30 90 2 27 9 59 15 71 7 12 12 32 12 45 0 29 47 98 97 143 46 42 59 44
37 8 -16 -28 -16 -28 2 -6 11 12 27 33 36 45 15 20 17 20 11 3 -4 -12 13 0 43
30 65 65 122 105 148 105 16 0 18 3 7 9 -9 6 -10 11 -2 15 6 4 15 4 21 1 5 -3
19 -1 30 5 11 6 35 13 53 15 18 2 50 7 72 10 l40 6 -24 -21 c-25 -22 -21 -26
10 -10 15 8 19 7 19 -4 0 -17 32 -38 52 -34 7 2 13 -4 12 -12 -1 -9 7 -17 17
-17 19 -2 79 -51 79 -66 0 -5 9 -16 20 -25 11 -10 21 -29 22 -44 1 -15 6 -26
11 -25 10 2 19 -23 31 -86 5 -26 4 -37 -3 -33 -25 16 -47 -87 -28 -133 7 -17
16 -28 20 -24 4 3 7 1 7 -5 0 -6 -4 -14 -10 -17 -5 -3 -10 -17 -10 -30 0 -13
-5 -27 -10 -30 -6 -4 -8 -9 -6 -13 2 -4 -4 -47 -14 -96 -11 -49 -17 -93 -14
-98 3 -4 0 -8 -7 -8 -8 0 -9 -3 0 -13 6 -8 8 -17 4 -21 -4 -3 -27 15 -52 42
-44 46 -120 92 -153 92 -9 0 -40 11 -70 25 -58 27 -145 34 -166 13 -7 -7 -12
-8 -12 -2 0 6 -16 8 -36 6 -25 -3 -32 -7 -23 -13 11 -7 11 -9 1 -9 -17 0 -122
-108 -122 -125 0 -7 -3 -21 -6 -29 -6 -14 0 -16 36 -10 23 4 51 8 63 9 36 4
37 4 37 20 0 32 46 48 123 41 119 -11 176 -32 224 -82 24 -24 47 -44 53 -44 5
0 10 -4 10 -10 0 -5 -7 -7 -15 -4 -11 5 -15 -1 -15 -20 0 -24 -3 -26 -37 -24
-25 1 -49 11 -71 30 -18 15 -47 35 -65 44 -29 14 -28 12 13 -24 25 -22 43 -42
40 -45 -8 -8 -127 49 -152 73 l-23 23 40 -6 c32 -5 36 -4 21 5 -11 6 -50 13
-87 16 -57 4 -73 1 -103 -18 -20 -12 -36 -27 -36 -34 0 -7 18 -21 40 -31 38
-17 41 -17 59 -1 22 20 37 6 33 -31 -2 -13 6 -32 20 -46 13 -13 23 -28 21 -33
-2 -6 17 -18 42 -28 44 -19 59 -36 30 -36 -8 0 -15 4 -15 9 0 5 -14 14 -32 22
-17 7 -51 30 -75 51 -62 54 -66 47 -8 -13 63 -64 86 -76 166 -84 143 -15 162
-14 197 13 28 21 32 22 32 7 0 -14 3 -15 15 -5 12 10 15 10 15 -2 0 -8 -3 -18
-7 -22 -10 -9 -11 -46 -2 -46 5 0 6 -7 3 -15 -4 -8 -10 -12 -16 -9 -5 3 -8 0
-7 -7 2 -13 -12 -52 -47 -129 -50 -109 -111 -210 -144 -237 -8 -7 -11 -13 -6
-13 5 0 -5 -13 -24 -30 -18 -16 -37 -27 -41 -24 -5 3 -6 -1 -3 -9 4 -10 -4
-16 -28 -20 -52 -8 -65 -12 -79 -24 -23 -18 -72 -26 -67 -11 7 20 -113 35
-192 24 -80 -10 -96 -22 -33 -23 50 0 143 -36 143 -55 0 -6 7 -7 18 -3 48 20
70 21 114 8 51 -14 78 -48 78 -95 0 -20 8 -26 46 -36 60 -16 98 -44 114 -81 6
-16 25 -35 40 -41 56 -23 98 -76 120 -149 11 -37 20 -85 20 -105 0 -59 -29
-172 -54 -209 -13 -19 -35 -64 -50 -101 -14 -36 -38 -96 -53 -133 -31 -79 -71
-156 -123 -233 -109 -164 -196 -363 -296 -683 -41 -131 -93 -287 -114 -348
-22 -61 -40 -113 -40 -115 0 -2 203 -3 451 -2 l451 3 33 101 c40 123 48 195
37 339 -11 145 1 177 17 44 16 -137 47 -330 67 -418 l16 -71 103 0 103 0 -15
47 c-38 120 -62 228 -63 275 0 20 -6 41 -12 45 -9 5 -13 37 -14 93 0 47 -4
108 -8 135 -4 28 -9 77 -10 110 -4 84 -15 150 -37 219 -11 32 -19 65 -19 72 0
8 -4 22 -9 32 -5 9 -14 35 -21 57 -7 22 -18 47 -26 55 -11 13 -10 21 4 49 25
52 141 162 224 214 84 53 133 72 223 88 89 15 118 -1 140 -78 25 -89 27 -92
37 -48 12 53 6 110 -19 165 -11 25 -30 66 -41 92 -13 29 -51 77 -104 130 -86
86 -218 242 -253 299 -11 18 -39 47 -62 64 -47 34 -51 45 -23 63 11 6 38 50
60 96 22 47 44 87 49 91 6 3 22 45 37 93 16 48 33 90 38 94 8 5 11 119 11 345
0 322 -1 346 -28 506 -28 172 -36 205 -82 366 -43 149 -90 237 -170 321 -62
66 -75 89 -110 200 -26 80 -114 260 -141 287 -7 7 -15 26 -19 42 -9 40 -26 53
-139 106 -102 47 -108 48 -236 34z"/>
<path d="M1564 2919 c9 -48 34 -68 93 -78 36 -5 63 -18 92 -43 23 -19 64 -42
92 -51 28 -9 64 -26 79 -37 44 -32 102 -6 124 54 6 17 2 18 -36 12 l-43 -6
-20 45 c-16 37 -23 44 -40 38 -54 -17 -126 4 -165 49 -26 30 -30 31 -82 25
-42 -5 -59 -3 -78 10 l-23 16 7 -34z"/>
<path d="M1315 2732 c-30 -5 -85 -32 -85 -41 0 -4 21 -6 48 -4 37 4 51 1 68
-15 11 -11 35 -23 53 -27 31 -6 91 -57 91 -76 0 -5 4 -9 10 -9 5 0 7 7 4 15
-8 21 -2 19 64 -14 31 -16 94 -43 140 -61 45 -18 81 -38 79 -44 -3 -6 -10 -10
-17 -8 -7 2 -17 -3 -21 -9 -6 -10 -16 -10 -48 0 -23 6 -41 16 -41 21 0 6 -6
10 -14 10 -7 0 -19 6 -25 14 -7 8 -21 12 -32 9 -15 -4 -18 -2 -13 13 4 12 3
15 -3 7 -4 -6 -20 -9 -34 -6 -26 5 -31 16 -17 38 3 6 -6 10 -23 11 -16 1 -29
-3 -29 -7 0 -5 -7 -9 -15 -9 -18 0 -18 -5 -5 -31 16 -29 -5 -24 -30 8 l-20 26
-21 -22 c-17 -18 -19 -27 -11 -51 7 -18 7 -30 1 -32 -23 -8 255 -188 289 -188
9 0 31 -9 49 -19 30 -19 32 -19 48 -1 9 10 14 24 10 29 -7 13 18 41 37 41 33
1 59 80 26 80 -6 0 -5 7 3 16 9 11 28 15 74 13 71 -3 85 3 85 36 0 24 -36 59
-52 49 -4 -3 -39 22 -78 55 -51 45 -85 65 -127 77 -31 9 -72 25 -91 36 -19 10
-71 24 -116 29 -44 6 -94 15 -111 20 -62 21 -81 25 -100 21z"/>
</g>
</svg>
